<?xml version="1.0" encoding="utf-8"?>
<!-- Generator: Adobe Illustrator 21.0.1, SVG Export Plug-In . SVG Version: 6.00 Build 0)  -->
<svg version="1.1" id="Layer_1" xmlns="http://www.w3.org/2000/svg" xmlns:xlink="http://www.w3.org/1999/xlink" x="0px" y="0px"
	 viewBox="0 0 1192.3 875.5" style="enable-background:new 0 0 1192.3 875.5;" xml:space="preserve" height="40px" width="54px">
<style type="text/css">
	.st0{fill:#FFFFFF;}
	.st1{fill-rule:evenodd;clip-rule:evenodd;fill:#FFFFFF;}
</style>
<g>
	<path class="st0" d="M1165.3,461.5c7.4,0,14.2,3,19,7.9c4.9,4.9,7.9,11.6,7.9,19.1c0,7.4-3,14.2-7.9,19c-4.9,4.9-11.6,7.9-19,7.9
		c-7.4,0-14.2-3-19-7.9c-4.9-4.9-7.9-11.6-7.9-19c0-7.4,3-14.2,7.9-19.1C1151.2,464.5,1157.9,461.5,1165.3,461.5L1165.3,461.5z
		 M1180,473.7c-3.8-3.8-9-6.1-14.7-6.1s-10.9,2.3-14.7,6.1c-3.8,3.8-6.1,8.9-6.1,14.7c0,5.7,2.3,10.9,6.1,14.7
		c3.8,3.8,9,6.1,14.7,6.1s10.9-2.3,14.7-6.1c3.8-3.8,6.1-9,6.1-14.7C1186.1,482.7,1183.8,477.5,1180,473.7z"/>
	<path class="st0" d="M1155.2,501.3v-26.9h11.4c2.9,0,5,0.3,6.3,0.7c1.3,0.5,2.3,1.3,3.1,2.6c0.8,1.2,1.2,2.6,1.2,4.2
		c0,2-0.6,3.7-1.8,5c-1.2,1.3-3,2.1-5.3,2.5c1.2,0.7,2.2,1.4,2.9,2.3c0.8,0.8,1.8,2.3,3.1,4.4l3.3,5.3h-6.5l-3.9-5.9
		c-1.4-2.1-2.4-3.4-2.9-3.9c-0.5-0.5-1.1-0.9-1.6-1.1c-0.6-0.2-1.5-0.3-2.7-0.3h-1.1v11.2H1155.2L1155.2,501.3z M1160.6,485.8h4
		c2.6,0,4.2-0.1,4.9-0.3c0.7-0.2,1.2-0.6,1.5-1.1c0.4-0.5,0.6-1.2,0.6-2c0-0.9-0.2-1.6-0.7-2.2c-0.5-0.6-1.2-0.9-2.1-1.1
		c-0.4-0.1-1.8-0.1-4-0.1h-4.2V485.8z"/>
	<path class="st1" d="M375.4,0c123.1,0,229.4,71.7,279.4,175.6c89.7,4,176.2,48.3,209.5,145.7c159.2-66.2,271.7,87.8,243.6,194.7
		c144,90.2,54.6,255.4-132.1,313.2c-143.6,44.4-351.1,70.9-557.2,13.4C43.8,905.1-128,573.2,108,467v0c-27.1-46-42.7-99.7-42.7-157
		C65.4,138.8,204.2,0,375.4,0L375.4,0z M364,327.8c0,36.8,7.5,66.9,20.2,88.1c13,21.5,31.3,33.5,52.8,33.5
		c26.3,0,44.6-12.6,56.8-32.4c14.8-24,20.5-58.5,20.5-93.6c0-30-1.9-64.7-12.5-91.8c-10.5-27-29.7-46.5-64.3-46.5
		c-24.9,0-41.8,15.3-53,37C368.6,252.9,364,296.6,364,327.8L364,327.8z M680.7,364.1c-14.7,83.5-62.8,155.5-130,201.6
		c1.3-2.1,2.6-4.2,3.9-6.5c5.4-9.9,8.8-20.7,10.9-32.3c2-11.6,2.7-24.1,2.7-37.4l-0.2-264.2c0-16.5,3.8-28.5,12-36.4
		c8.2-7.9,20.7-11.6,38.1-11.6h0.8v-0.8l0-11.4v-0.8H618l-50.7,0.1l0,0h-52.1h-0.8v0.8v41.5c-9.1-16.4-20.7-28.3-34.2-36.2
		c-15.3-9.1-33.1-13.2-52.5-13.2c-7.8,0-15.1,0.6-22,1.8c-37.8,6.5-63.3,29.6-79.3,59.5c-16,29.8-22.5,66.5-22.5,100
		c0,14.1,1.2,27.6,3.3,39.9c6.4,37.4,20.3,67.6,41.2,88.3c20.2,20,46.8,31,79.4,31c21.4,0,37.6-3.1,51.2-11
		c13.1-7.5,23.9-19.4,34.8-36.9c-0.1,4.8-0.1,11-0.1,18.1c0,31.1-0.1,79.1-5.7,95.8c-5.1,15.1-14.3,25.6-25.5,32.6
		c-13.5,8.5-30,11.8-45.4,11.8c-14.8,0-31.2-5.2-43.5-15.8c-10.2-8.9-17.6-21.5-18.9-38.1l-0.1-0.8h-0.7H313h-0.8l0,0.8
		c1.1,28.5,14.8,47.4,33.2,59.8c23.5,15.8,54.7,21,77.6,22.3c-15.5,2.4-31.5,3.7-47.7,3.7c-42.2,0-82.3-8.4-118.9-23.7
		c-193.6,1-96.9,234,190,183.8c176.6,74.3,412.1,75,549.5-3.4c105.8-60.3,150.6-172.1,44.2-227.7c18.4-106.8-97.4-178.9-192.1-92.7
		C832.6,368.6,749.3,338.6,680.7,364.1z"/>
</g>
</svg>
